# xmcd
# 
# Track frame offsets:
#     150
#     10978
#     22605
#     35100
#     45224
#     58047
#     72308
#     83783
#     96398
#     108667
#     121227
#     133317
#     143343
#     154192
#     164660
#     176955
#     188458
#     199905
#     212283
#     223530
#     235423
#     246133
#     258196
#     268234
# 
# Disc length: 3751
# 
# Revision: 4
# Processed by: cddbd v1.5.2PL0 Copyright (c) Steve Scherf et al.
# Submitted via: fre:ac v1.0.31
# 
DISCID=570ea518
DTITLE=Motown - Complete Motown Singles -  Volume 1 - Disc 6
DYEAR=2004
DGENRE=R&B
TTITLE0=EDDIE HOLLAND - Jamie
TTITLE1=EDDIE HOLLAND - Take a chance on me
TTITLE2=THE VALADIERS - Greetings (this is uncle Sam)
TTITLE3=THE VALADIERS - Take a chance
TTITLE4=MABLE JOHN - Actions speak louder than words
TTITLE5=MABLE JOHN - Take me
TTITLE6=SAMMY WARD - What makes you love him [second version]
TTITLE7=SAMMY WARD - Don't take it away
TTITLE8=THE TEMPTATIONS - Check yourself
TTITLE9=THE TEMPTATIONS - Your wonderful love
TTITLE10=BOB KAYLI - Small sad Sam
TTITLE11=BOB KAYLI - Tie me tight
TTITLE12=DON McKENZIE - Whose heart (are you going to break now)
TTITLE13=DON McKENZIE - I'll call you
TTITLE14=THE TWISTIN' KINGS - Xmas twist
TTITLE15=THE TWISTIN' KINGS - White house twist
TTITLE16=MICKEY WOODS - Please Mr. Kennedy
TTITLE17=MICKEY WOODS - (They call me) Cupid
TTITLE18=THE MARVELETTES - Twistin' postman
TTITLE19=THE MARVELETTES - I want a guy
TTITLE20=THE MIRACLES - What's so good about good bye
TTITLE21=THE MIRACLES - I've been good to you
TTITLE22=THE TWISTIN' KINGS - Congo (part 1)
TTITLE23=THE TWISTIN' KINGS - Congo (part 2)
EXTD=
EXTT0=
EXTT1=
EXTT2=
EXTT3=
EXTT4=
EXTT5=
EXTT6=
EXTT7=
EXTT8=
EXTT9=
EXTT10=
EXTT11=
EXTT12=
EXTT13=
EXTT14=
EXTT15=
EXTT16=
EXTT17=
EXTT18=
EXTT19=
EXTT20=
EXTT21=
EXTT22=
EXTT23=
PLAYORDER=
